<mxfile host="65bd71144e">
    <diagram id="wKqtD6643-NpDRIVkZ0B" name="Page-1">
        <mxGraphModel dx="857" dy="662" grid="1" gridSize="10" guides="1" tooltips="1" connect="1" arrows="1" fold="1" page="1" pageScale="1" pageWidth="850" pageHeight="1100" math="0" shadow="0">
            <root>
                <mxCell id="0"/>
                <mxCell id="1" parent="0"/>
                <mxCell id="25" value="" style="rounded=1;whiteSpace=wrap;html=1;gradientDirection=east;fillColor=#0066CC;fontColor=#ffffff;strokeColor=#006EAF;shadow=0;glass=1;gradientColor=#0066CC;opacity=50;" vertex="1" parent="1">
                    <mxGeometry x="20" y="60" width="800" height="120" as="geometry"/>
                </mxCell>
                <mxCell id="23" value="" style="rounded=1;whiteSpace=wrap;html=1;gradientDirection=east;fillColor=#009900;fontColor=#ffffff;strokeColor=#006EAF;shadow=0;glass=1;gradientColor=#009900;opacity=50;" vertex="1" parent="1">
                    <mxGeometry x="20" y="10" width="490" height="130" as="geometry"/>
                </mxCell>
                <mxCell id="7" value="Template" style="rounded=1;whiteSpace=wrap;html=1;fillColor=#d0cee2;strokeColor=#56517e;" vertex="1" parent="1">
                    <mxGeometry x="520" y="70" width="120" height="60" as="geometry"/>
                </mxCell>
                <mxCell id="9" value="Atoms" style="rounded=1;whiteSpace=wrap;html=1;fillColor=#b0e3e6;strokeColor=#0e8088;" vertex="1" parent="1">
                    <mxGeometry x="50" y="70" width="120" height="60" as="geometry"/>
                </mxCell>
                <mxCell id="10" value="Molecules" style="rounded=1;whiteSpace=wrap;html=1;fillColor=#b0e3e6;strokeColor=#0e8088;" vertex="1" parent="1">
                    <mxGeometry x="200" y="70" width="120" height="60" as="geometry"/>
                </mxCell>
                <mxCell id="11" value="Organisms" style="rounded=1;whiteSpace=wrap;html=1;fillColor=#b0e3e6;strokeColor=#0e8088;" vertex="1" parent="1">
                    <mxGeometry x="360" y="70" width="120" height="60" as="geometry"/>
                </mxCell>
                <mxCell id="22" value="Page" style="rounded=1;whiteSpace=wrap;html=1;fillColor=#dae8fc;strokeColor=#6c8ebf;gradientColor=#7ea6e0;" vertex="1" parent="1">
                    <mxGeometry x="680" y="70" width="120" height="60" as="geometry"/>
                </mxCell>
                <mxCell id="24" value="Desing System" style="text;html=1;strokeColor=none;fillColor=none;align=center;verticalAlign=middle;whiteSpace=wrap;rounded=0;" vertex="1" parent="1">
                    <mxGeometry x="40" y="20" width="110" height="30" as="geometry"/>
                </mxCell>
                <mxCell id="26" value="Web App" style="text;html=1;strokeColor=none;fillColor=none;align=center;verticalAlign=middle;whiteSpace=wrap;rounded=0;" vertex="1" parent="1">
                    <mxGeometry x="685" y="140" width="110" height="30" as="geometry"/>
                </mxCell>
                <mxCell id="28" value="&lt;div&gt;&lt;br&gt;&lt;/div&gt;&lt;ul&gt;&lt;li&gt;Adobe Data Layer&lt;/li&gt;&lt;li&gt;SiteMainder Login&amp;nbsp;&amp;nbsp;&lt;/li&gt;&lt;li&gt;Services Layer&amp;nbsp;&lt;/li&gt;&lt;li&gt;Comands Tempaltes Library&amp;nbsp;&lt;/li&gt;&lt;/ul&gt;" style="text;strokeColor=none;fillColor=none;html=1;whiteSpace=wrap;verticalAlign=middle;overflow=hidden;rounded=1;shadow=0;glass=1;opacity=50;" vertex="1" parent="1">
                    <mxGeometry x="525" y="210" width="270" height="180" as="geometry"/>
                </mxCell>
            </root>
        </mxGraphModel>
    </diagram>
</mxfile>